Coordinates
nRows=10
nColumns=38

# SIMM Motion File Header:
name Coordinates
datacolumns 38
datarows 10
otherdata 1
range 1.64199999999999990000 1.65099999999999980000

Units are S.I. units (second, meters, Newtons, ...)
Angles are in degrees.

endheader
time	pelvis_tilt	pelvis_list	pelvis_rotation	pelvis_tx	pelvis_ty	pelvis_tz	hip_flexion_r	hip_adduction_r	hip_rotation_r	knee_angle_r	ankle_angle_r	subtalar_angle_r	mtp_angle_r	hip_flexion_l	hip_adduction_l	hip_rotation_l	knee_angle_l	ankle_angle_l	subtalar_angle_l	mtp_angle_l	lumbar_extension	lumbar_bending	lumbar_rotation	arm_flex_r	arm_add_r	arm_rot_r	elbow_flex_r	pro_sup_r	wrist_flex_r	wrist_dev_r	arm_flex_l	arm_add_l	arm_rot_l	elbow_flex_l	pro_sup_l	wrist_flex_l	wrist_dev_l
      1.64199999999999990000	     -0.86710150997409607000	     -3.99092929274333840000	     -4.51249265112504180000	      1.05348381211074240000	      1.04433726703568190000	     -0.48711087926795582000	     17.82330218205681000000	      5.36836324614079620000	     13.14737089558533300000	     -7.08032149201822140000	      7.02279731265325590000	      0.00000000000000000000	      0.00000000000000000000	     -9.72342756916426510000	     -1.85675225109181350000	      4.96164339588186110000	    -33.13436761871242500000	     -5.81126177786626470000	      0.00000000000000000000	      0.00000000000000000000	     -5.76121818203284960000	      4.48558058780717860000	     -2.94064962432289700000	    -34.67390727526341000000	    -15.08130687293148700000	    -18.92933173459630700000	     86.43799140050526800000	    103.90869154703998000000	      0.00000000000000000000	      0.00000000000000000000	     -1.44150109714359750000	    -13.14235107557560400000	     15.75167480507742600000	    142.10551399348097000000	     94.15578823147403400000	      0.00000000000000000000	      0.00000000000000000000
      1.64299999999999980000	     -0.87036054720440215000	     -4.01611091722935940000	     -4.47537428211078940000	      1.05356453209174460000	      1.04418597541151500000	     -0.48698450236661578000	     17.80604967595517300000	      5.39921934058506100000	     13.07801288741281600000	     -7.08602851956406440000	      6.98825607068067180000	      0.00000000000000000026	     -0.00000000000000000142	     -9.63458493092198510000	     -1.86891493909227390000	      5.04406589576735960000	    -33.43837395153698800000	     -5.97736709009576560000	      0.00000000000000000007	      0.00000000000000000197	     -5.74926537187312640000	      4.54096787753404030000	     -2.96306963195665850000	    -34.67337940733182900000	    -15.02808069724237900000	    -18.92541110209605300000	     86.50961137351090700000	    103.74894108327575000000	     -0.00000000000000000042	     -0.00000000000000000005	     -1.49795916177263240000	    -13.17537158256594600000	     15.81144598857419900000	    142.00912508236192000000	     94.18591953036663300000	     -0.00000000000000000014	     -0.00000000000000000011
      1.64399999999999990000	     -0.87298180331728581000	     -4.04110608098929090000	     -4.43860622834046040000	      1.05364197338680650000	      1.04402681497214480000	     -0.48685627057372283000	     17.79134667833119500000	      5.43151489721293680000	     13.00775048045887400000	     -7.10472690960387700000	      6.95314534404199590000	      0.00000000000000000121	     -0.00000000000000000577	     -9.54412449205033830000	     -1.88027165582184000000	      5.12671766926873660000	    -33.74513111208805300000	     -6.14288874766970760000	      0.00000000000000000015	      0.00000000000000000496	     -5.73826172191757600000	      4.59576462927799940000	     -2.98494508820894170000	    -34.67044142662506800000	    -14.97586847972183000000	    -18.91858070629408300000	     86.57950860760058700000	    103.58802395228831000000	     -0.00000000000000000094	     -0.00000000000000000027	     -1.55482049069713280000	    -13.20923241642284100000	     15.87006480199279100000	    141.91080181191748000000	     94.21355792722454200000	      0.00000000000000000005	     -0.00000000000000000031
      1.64499999999999980000	     -0.87493968055642479000	     -4.06588021910128020000	     -4.40221152841688920000	      1.05371622053777460000	      1.04385981844459840000	     -0.48672614404253484000	     17.77908829899448800000	      5.46519053821145300000	     12.93674401252116000000	     -7.13619459836866540000	      6.91730298257145380000	      0.00000000000000000242	     -0.00000000000000001114	     -9.45214722651952850000	     -1.89079276095666420000	      5.20949752884659830000	    -34.05448068212112400000	     -6.30815712382065640000	      0.00000000000000000064	      0.00000000000000000824	     -5.72822843326201790000	      4.64992422146532560000	     -3.00627491438455420000	    -34.66507265246053000000	    -14.92469450031489900000	    -18.90881190553543000000	     86.64766716653070900000	    103.42591869770338000000	     -0.00000000000000000113	     -0.00000000000000000045	     -1.61210525520751520000	    -13.24392404613482600000	     15.92748877051435700000	    141.81058913766884000000	     94.23881974227018100000	     -0.00000000000000000012	     -0.00000000000000000065
      1.64599999999999990000	     -0.87620815404809693000	     -4.09039204444507480000	     -4.36621461615615840000	      1.05378737688885500000	      1.04368500791459160000	     -0.48659407930107856000	     17.76914894480177400000	      5.50017531661202510000	     12.86519686435296700000	     -7.18014875144802730000	      6.88060634190900270000	      0.00000000000000000489	     -0.00000000000000001760	     -9.35876935408265890000	     -1.90044452255912110000	      5.29228623895697050000	    -34.36626116465237100000	     -6.47302019761833860000	      0.00000000000000000116	      0.00000000000000001217	     -5.71918465226915180000	      4.70339139285073320000	     -3.02706164676811220000	    -34.65725075936148900000	    -14.87458745994197400000	    -18.89606919860256800000	     86.71407172973975700000	    103.26259661041482000000	     -0.00000000000000000070	     -0.00000000000000000041	     -1.66984031960464300000	    -13.27943621463653100000	     15.98366032847632400000	    141.70854335776934000000	     94.26186265112430400000	     -0.00000000000000000060	     -0.00000000000000000070
      1.64699999999999980000	     -0.87676446977455513000	     -4.11460118418412970000	     -4.33063952046464080000	      1.05385554365803720000	      1.04350240062598170000	     -0.48646003480530198000	     17.76140411671234200000	      5.53639775951135070000	     12.79331501692577300000	     -7.23629483894633370000	      6.84294237612953450000	      0.00000000000000000841	     -0.00000000000000002568	     -9.26410208239087040000	     -1.90919677978281580000	      5.37496367058694170000	    -34.68031770192801100000	     -6.63729556568866120000	     -0.00000000000000000005	      0.00000000000000001679	     -5.71114625323106400000	      4.75611279018146330000	     -3.04730783121069360000	    -34.64695458757518800000	    -14.82557552734539600000	    -18.88031836173170000000	     86.77870893757582800000	    103.09802467626558000000	     -0.00000000000000000060	     -0.00000000000000000046	     -1.72805307110327400000	    -13.31575833162171400000	     16.03851532172159700000	    141.60472102185523000000	     94.28286633859063700000	     -0.00000000000000000157	     -0.00000000000000000127
      1.64799999999999990000	     -0.87658937764826761000	     -4.13846853981492390000	     -4.29550993693084850000	      1.05392081866156630000	      1.04331200913403070000	     -0.48632397096281155000	     17.75573158118128000000	      5.57378652305446390000	     12.72130564625534900000	     -7.30432861179533970000	      6.80420910506697040000	      0.00000000000000001097	     -0.00000000000000003557	     -9.16825088681697410000	     -1.91702333117942890000	      5.45740910538118400000	    -34.99650238911471000000	     -6.80077594385721800000	     -0.00000000000000000056	      0.00000000000000002094	     -5.70412572833391800000	      4.80803742930349380000	     -3.06701577361459240000	    -34.63416411262522800000	    -14.77768622835576400000	    -18.86152664384802000000	     86.84156736768780100000	    102.93216574051964000000	     -0.00000000000000000076	     -0.00000000000000000055	     -1.78677110154239750000	    -13.35287946251083100000	     16.09198354402338500000	    141.49917855542043000000	     94.30203152522720700000	     -0.00000000000000000270	     -0.00000000000000000203
      1.64899999999999980000	     -0.87566732999926045000	     -4.16195657720401610000	     -4.26084930528860100000	      1.05398329527095540000	      1.04311384135432190000	     -0.48618584997073599000	     17.75201232938004000000	      5.61227094914853720000	     12.64937612081249800000	     -7.38393759646583710000	      6.76431742339658100000	      0.00000000000000001448	     -0.00000000000000004680	     -9.07131492506343130000	     -1.92390226405582170000	      5.53950141988099530000	    -35.31467488074955700000	     -6.96322961283395170000	      0.00000000000000000036	      0.00000000000000002459	     -5.69813208616651500000	      4.85911702705981070000	     -3.08618733399956740000	    -34.61886039252470900000	    -14.73094636292524700000	    -18.83966288835955200000	     86.90263750150802500000	    102.76497864786785000000	     -0.00000000000000000093	     -0.00000000000000000028	     -1.84602198450766220000	    -13.39078833854877700000	     16.14398918523678400000	    141.39197200156019000000	     94.31957919073920500000	     -0.00000000000000000295	     -0.00000000000000000319
      1.64999999999999990000	     -0.87398668044594796000	     -4.18502961991345220000	     -4.22668088477732070000	      1.05404306138430280000	      1.04290790062618190000	     -0.48604563562159903000	     17.75013153313376100000	      5.65178161728537990000	     12.57773300253434800000	     -7.47480258937486310000	      6.72319291278884460000	      0.00000000000000001974	     -0.00000000000000005891	     -8.97338645390349750000	     -1.92981627884032920000	      5.62111926377751290000	    -35.63470300549413100000	     -7.12440081371931200000	      0.00000000000000000059	      0.00000000000000002948	     -5.69317075229211960000	      4.90930632409558320000	     -3.10482371991304040000	    -34.60102551379860400000	    -14.68538191939807400000	    -18.81469765556741100000	     86.96191169636209400000	    102.59641838207823000000	     -0.00000000000000000127	      0.00000000000000000064	     -1.90583305344424890000	    -13.42947337684330800000	     16.19445127356316400000	    141.28315676173565000000	     94.33574979928477000000	     -0.00000000000000000337	     -0.00000000000000000490
      1.65099999999999980000	     -0.87153991389266083000	     -4.20765421797595800000	     -4.19302781810288930000	      1.05410019842057270000	      1.04269418566869270000	     -0.48590329303495300000	     17.74997952595560900000	      5.69225097157270900000	     12.50658102564827500000	     -7.57659917257682110000	      6.68077765481274800000	      0.00000000000000002491	     -0.00000000000000007107	     -8.87455030340105110000	     -1.93475311439076170000	      5.70214110957193210000	    -35.95646339738627300000	     -7.28400560451578820000	      0.00000000000000000042	      0.00000000000000003604	     -5.68924344245571680000	      4.95856347548639760000	     -3.12292528317257820000	    -34.58064255702939200000	    -14.64101799764635100000	    -18.78660335015722200000	     87.01938419120854500000	    102.42643620635553000000	     -0.00000000000000000176	      0.00000000000000000176	     -1.96623118143005080000	    -13.46892270462197800000	     16.24328412375795600000	    141.17278734159842000000	     94.35080247396130900000	     -0.00000000000000000415	     -0.00000000000000000658
